<?xml version="1.0" encoding="UTF-8" standalone="no"?>
<!-- Created with Inkscape (http://www.inkscape.org/) -->

<svg
   version="1.1"
   id="svg2"
   xml:space="preserve"
   width="1122.52"
   height="793.70667"
   viewBox="0 0 1122.52 793.70667"
   xmlns="http://www.w3.org/2000/svg"
   xmlns:svg="http://www.w3.org/2000/svg"><defs
     id="defs6"><linearGradient
       x1="0"
       y1="0"
       x2="1"
       y2="0"
       gradientUnits="userSpaceOnUse"
       gradientTransform="matrix(-127.98477,127.03662,127.03662,127.98477,259.96143,260.78613)"
       spreadMethod="pad"
       id="linearGradient30"><stop
         style="stop-opacity:1;stop-color:#071940"
         offset="0"
         id="stop22" /><stop
         style="stop-opacity:1;stop-color:#071940"
         offset="0.396851"
         id="stop24" /><stop
         style="stop-opacity:1;stop-color:#071940"
         offset="0.54381887"
         id="stop26" /><stop
         style="stop-opacity:1;stop-color:#2b4582"
         offset="1"
         id="stop28" /></linearGradient><linearGradient
       x1="0"
       y1="0"
       x2="1"
       y2="0"
       gradientUnits="userSpaceOnUse"
       gradientTransform="matrix(-127.9935,127.0453,127.0453,127.99352,240.02637,240.69336)"
       spreadMethod="pad"
       id="linearGradient54"><stop
         style="stop-opacity:1;stop-color:#071940"
         offset="0"
         id="stop46" /><stop
         style="stop-opacity:1;stop-color:#071940"
         offset="0.396851"
         id="stop48" /><stop
         style="stop-opacity:1;stop-color:#071940"
         offset="0.54381887"
         id="stop50" /><stop
         style="stop-opacity:1;stop-color:#2b4582"
         offset="1"
         id="stop52" /></linearGradient><linearGradient
       x1="0"
       y1="0"
       x2="1"
       y2="0"
       gradientUnits="userSpaceOnUse"
       gradientTransform="matrix(-127.99275,127.04454,127.04454,127.99275,211.85107,212.30957)"
       spreadMethod="pad"
       id="linearGradient78"><stop
         style="stop-opacity:1;stop-color:#071940"
         offset="0"
         id="stop70" /><stop
         style="stop-opacity:1;stop-color:#071940"
         offset="0.396851"
         id="stop72" /><stop
         style="stop-opacity:1;stop-color:#071940"
         offset="0.54381887"
         id="stop74" /><stop
         style="stop-opacity:1;stop-color:#2b4582"
         offset="1"
         id="stop76" /></linearGradient><linearGradient
       x1="0"
       y1="0"
       x2="1"
       y2="0"
       gradientUnits="userSpaceOnUse"
       gradientTransform="matrix(-127.99316,127.04497,127.04497,127.99318,262.32812,263.1582)"
       spreadMethod="pad"
       id="linearGradient102"><stop
         style="stop-opacity:1;stop-color:#071940"
         offset="0"
         id="stop94" /><stop
         style="stop-opacity:1;stop-color:#071940"
         offset="0.396851"
         id="stop96" /><stop
         style="stop-opacity:1;stop-color:#071940"
         offset="0.54381887"
         id="stop98" /><stop
         style="stop-opacity:1;stop-color:#2b4582"
         offset="1"
         id="stop100" /></linearGradient><linearGradient
       x1="0"
       y1="0"
       x2="1"
       y2="0"
       gradientUnits="userSpaceOnUse"
       gradientTransform="matrix(-127.98338,127.03525,127.03525,127.98338,234.55811,235.19141)"
       spreadMethod="pad"
       id="linearGradient126"><stop
         style="stop-opacity:1;stop-color:#071940"
         offset="0"
         id="stop118" /><stop
         style="stop-opacity:1;stop-color:#071940"
         offset="0.396851"
         id="stop120" /><stop
         style="stop-opacity:1;stop-color:#071940"
         offset="0.54381887"
         id="stop122" /><stop
         style="stop-opacity:1;stop-color:#2b4582"
         offset="1"
         id="stop124" /></linearGradient><linearGradient
       x1="0"
       y1="0"
       x2="1"
       y2="0"
       gradientUnits="userSpaceOnUse"
       gradientTransform="matrix(-127.98535,127.0372,127.0372,127.98537,232.91846,233.52539)"
       spreadMethod="pad"
       id="linearGradient150"><stop
         style="stop-opacity:1;stop-color:#071940"
         offset="0"
         id="stop142" /><stop
         style="stop-opacity:1;stop-color:#071940"
         offset="0.396851"
         id="stop144" /><stop
         style="stop-opacity:1;stop-color:#071940"
         offset="0.54381887"
         id="stop146" /><stop
         style="stop-opacity:1;stop-color:#2b4582"
         offset="1"
         id="stop148" /></linearGradient><linearGradient
       x1="0"
       y1="0"
       x2="1"
       y2="0"
       gradientUnits="userSpaceOnUse"
       gradientTransform="matrix(-127.99255,127.04436,127.04436,127.99257,187.26025,187.5332)"
       spreadMethod="pad"
       id="linearGradient174"><stop
         style="stop-opacity:1;stop-color:#071940"
         offset="0"
         id="stop166" /><stop
         style="stop-opacity:1;stop-color:#071940"
         offset="0.396851"
         id="stop168" /><stop
         style="stop-opacity:1;stop-color:#071940"
         offset="0.54381887"
         id="stop170" /><stop
         style="stop-opacity:1;stop-color:#2b4582"
         offset="1"
         id="stop172" /></linearGradient><linearGradient
       x1="0"
       y1="0"
       x2="1"
       y2="0"
       gradientUnits="userSpaceOnUse"
       gradientTransform="matrix(-127.98508,127.03693,127.03693,127.98508,216.71631,217.2168)"
       spreadMethod="pad"
       id="linearGradient198"><stop
         style="stop-opacity:1;stop-color:#071940"
         offset="0"
         id="stop190" /><stop
         style="stop-opacity:1;stop-color:#071940"
         offset="0.396851"
         id="stop192" /><stop
         style="stop-opacity:1;stop-color:#071940"
         offset="0.54381887"
         id="stop194" /><stop
         style="stop-opacity:1;stop-color:#2b4582"
         offset="1"
         id="stop196" /></linearGradient><linearGradient
       x1="0"
       y1="0"
       x2="1"
       y2="0"
       gradientUnits="userSpaceOnUse"
       gradientTransform="matrix(-127.99712,127.04887,127.04887,127.99712,297.4541,298.54297)"
       spreadMethod="pad"
       id="linearGradient222"><stop
         style="stop-opacity:1;stop-color:#071940"
         offset="0"
         id="stop214" /><stop
         style="stop-opacity:1;stop-color:#071940"
         offset="0.396851"
         id="stop216" /><stop
         style="stop-opacity:1;stop-color:#071940"
         offset="0.54381887"
         id="stop218" /><stop
         style="stop-opacity:1;stop-color:#2b4582"
         offset="1"
         id="stop220" /></linearGradient><linearGradient
       x1="0"
       y1="0"
       x2="1"
       y2="0"
       gradientUnits="userSpaceOnUse"
       gradientTransform="matrix(-127.99582,127.04761,127.04761,127.99583,233.99219,234.60645)"
       spreadMethod="pad"
       id="linearGradient246"><stop
         style="stop-opacity:1;stop-color:#071940"
         offset="0"
         id="stop238" /><stop
         style="stop-opacity:1;stop-color:#071940"
         offset="0.396851"
         id="stop240" /><stop
         style="stop-opacity:1;stop-color:#071940"
         offset="0.54381887"
         id="stop242" /><stop
         style="stop-opacity:1;stop-color:#2b4582"
         offset="1"
         id="stop244" /></linearGradient><clipPath
       clipPathUnits="userSpaceOnUse"
       id="clipPath256"><path
         d="M 0,595.28 H 841.89 V 0 H 0 Z"
         id="path254" /></clipPath></defs><g
     id="g8"
     transform="matrix(1.3333333,0,0,-1.3333333,0,793.70667)"><g
       id="g10"><g
         id="g12"><g
           id="g18"><g
             id="g20"><path
               d="m 166.269,309.109 c 1.783,0.256 3.593,0.434 5.447,0.434 v 0 c 8.701,0 16.702,-2.96 23.127,-7.876 v 0 c 10.717,14.354 17.102,32.111 17.236,51.322 v 0 c -24.167,-1.069 -43.745,-19.985 -45.81,-43.88"
               style="fill:url(#linearGradient30);stroke:none"
               id="path32" /></g></g></g></g><g
       id="g34"><g
         id="g36"><g
           id="g42"><g
             id="g44"><path
               d="M 112.697,369.457 V 267.518 c 4.056,-0.583 8.196,-0.902 12.413,-0.902 v 0 c 2.937,0 5.839,0.154 8.701,0.438 v 0 c -0.158,1.418 -0.261,2.86 -0.261,4.325 v 0 c 0,16.28 10.267,30.176 24.649,35.645 v 0 c 1.083,29.157 24.458,52.646 53.562,53.913 v 0 c -0.24,2.882 -0.639,5.723 -1.155,8.52 v 0 z"
               style="fill:url(#linearGradient54);stroke:none"
               id="path56" /></g></g></g></g><g
       id="g58"><g
         id="g60"><g
           id="g66"><g
             id="g68"><path
               d="m 143.581,260.474 c 4.388,-11.277 15.328,-19.302 28.135,-19.302 v 0 c 9.4,0 17.808,4.321 23.35,11.076 v 0 c -9.833,3.586 -18.385,9.809 -24.781,17.86 v 0 c -8.242,-4.48 -17.222,-7.756 -26.704,-9.634"
               style="fill:url(#linearGradient78);stroke:none"
               id="path80" /></g></g></g></g><g
       id="g82"><g
         id="g84"><g
           id="g90"><g
             id="g92"><path
               d="m 200.662,296.185 c 5.731,-6.678 9.221,-15.332 9.221,-24.806 v 0 c 0,-4.96 -0.98,-9.685 -2.706,-14.033 v 0 c 2.305,-0.342 4.643,-0.573 7.042,-0.573 v 0 c 9.906,0 19.12,3.013 26.785,8.161 v 0 79.945 c -6.145,4.13 -13.274,6.903 -20.97,7.835 v 0 c -0.195,-21.218 -7.384,-40.789 -19.372,-56.529"
               style="fill:url(#linearGradient102);stroke:none"
               id="path104" /></g></g></g></g><g
       id="g106"><g
         id="g108"><g
           id="g114"><g
             id="g116"><path
               d="m 166.252,301.057 c 0.591,-7.343 2.833,-14.214 6.361,-20.266 v 0 c 6.346,4.155 12.124,9.105 17.176,14.725 v 0 c -5.045,3.789 -11.29,6.064 -18.073,6.064 v 0 c -1.866,0 -3.689,-0.197 -5.464,-0.523"
               style="fill:url(#linearGradient126);stroke:none"
               id="path128" /></g></g></g></g><g
       id="g130"><g
         id="g132"><g
           id="g138"><g
             id="g140"><path
               d="m 214.219,248.809 c -3.759,0 -7.425,0.386 -10.975,1.092 v 0 c -2.292,-3.354 -5.144,-6.28 -8.357,-8.749 v 0 h 46.117 v 14.472 c -7.965,-4.346 -17.09,-6.815 -26.785,-6.815"
               style="fill:url(#linearGradient150);stroke:none"
               id="path152" /></g></g></g></g><g
       id="g154"><g
         id="g156"><g
           id="g162"><g
             id="g164"><path
               d="m 112.697,241.152 h 35.804 c -5.933,4.579 -10.501,10.843 -12.94,18.089 v 0 c -3.436,-0.375 -6.919,-0.587 -10.451,-0.587 v 0 c -4.21,0 -8.347,0.303 -12.413,0.838 v 0 z"
               style="fill:url(#linearGradient174);stroke:none"
               id="path176" /></g></g></g></g><g
       id="g178"><g
         id="g180"><g
           id="g186"><g
             id="g188"><path
               d="m 141.512,271.379 c 0,-1.07 0.06,-2.122 0.166,-3.157 v 0 c 8.539,1.652 16.634,4.555 24.09,8.517 v 0 c -3.818,6.533 -6.371,13.89 -7.274,21.746 v 0 c -10.037,-4.909 -16.982,-15.2 -16.982,-27.106"
               style="fill:url(#linearGradient198);stroke:none"
               id="path200" /></g></g></g></g><g
       id="g202"><g
         id="g204"><g
           id="g210"><g
             id="g212"><path
               d="m 218.69,369.457 c 0.483,-2.85 0.847,-5.738 1.066,-8.673 v 0 c 7.641,-0.752 14.811,-3.089 21.248,-6.6 v 0 15.273 z"
               style="fill:url(#linearGradient222);stroke:none"
               id="path224" /></g></g></g></g><g
       id="g226"><g
         id="g228"><g
           id="g234"><g
             id="g236"><path
               d="m 177.137,274.235 c 5.756,-6.93 13.422,-12.212 22.179,-15.072 v 0 c 1.661,3.74 2.603,7.866 2.603,12.216 v 0 c 0,6.996 -2.417,13.435 -6.43,18.564 v 0 c -5.413,-5.982 -11.585,-11.254 -18.352,-15.708"
               style="fill:url(#linearGradient246);stroke:none"
               id="path248" /></g></g></g></g><g
       id="g250"><g
         id="g252"
         clip-path="url(#clipPath256)"><g
           id="g258"
           transform="translate(126.2754,205.4131)"><path
             d="m 0,0 c -1.618,1.521 -3.16,2.19 -5.026,2.19 -3.659,0 -6.694,-3.137 -6.694,-6.918 0,-3.708 3.035,-6.767 6.719,-6.767 1.841,0 3.409,0.672 5.001,2.165 v -2.291 c -1.643,-1.12 -3.21,-1.617 -5.001,-1.617 -4.678,0 -8.585,3.883 -8.585,8.536 0,4.749 3.907,8.633 8.685,8.633 1.841,0 3.234,-0.47 4.901,-1.64 z"
             style="fill:#1a171b;fill-opacity:1;fill-rule:nonzero;stroke:none"
             id="path260" /></g><g
           id="g262"
           transform="translate(152.5703,194.1924)"><path
             d="m 0,0 v -1.718 h -11.894 l 9.057,14.879 h -7.886 v 1.718 H 0.224 L -8.81,0 Z"
             style="fill:#1a171b;fill-opacity:1;fill-rule:nonzero;stroke:none"
             id="path264" /></g><g
           id="g266"
           transform="translate(170.0063,207.3535)"><path
             d="M 0,0 V -4.95 H 6.544 V -6.668 H 0 v -6.493 h 6.72 v -1.718 H -1.866 V 1.718 H 6.72 V 0 Z"
             style="fill:#1a171b;fill-opacity:1;fill-rule:nonzero;stroke:none"
             id="path268" /></g><g
           id="g270"
           transform="translate(205.2842,205.4131)"><path
             d="m 0,0 c -1.619,1.521 -3.162,2.19 -5.028,2.19 -3.657,0 -6.692,-3.137 -6.692,-6.918 0,-3.708 3.035,-6.767 6.719,-6.767 1.839,0 3.408,0.672 5.001,2.165 v -2.291 c -1.643,-1.12 -3.212,-1.617 -5.001,-1.617 -4.679,0 -8.585,3.883 -8.585,8.536 0,4.749 3.906,8.633 8.685,8.633 1.839,0 3.232,-0.47 4.901,-1.64 z"
             style="fill:#1a171b;fill-opacity:1;fill-rule:nonzero;stroke:none"
             id="path272" /></g><g
           id="g274"
           transform="translate(231.604,202.3027)"><path
             d="M 0,0 V 6.769 H 1.865 V -9.828 H 0 v 8.11 h -8.461 v -8.11 h -1.867 V 6.769 h 1.867 l 0,-6.769 z"
             style="fill:#1a171b;fill-opacity:1;fill-rule:nonzero;stroke:none"
             id="path276" /></g><g
           id="g278"
           transform="translate(276.5503,205.8105)"><path
             d="m 0,0 c -0.847,1.343 -1.569,1.793 -2.861,1.793 -1.543,0 -2.737,-1.098 -2.737,-2.563 0,-0.722 0.348,-1.32 1.044,-1.793 0.596,-0.397 0.596,-0.397 2.861,-1.392 2.663,-1.17 3.758,-2.487 3.758,-4.577 0,-2.864 -2.314,-5.104 -5.274,-5.104 -2.613,0 -4.479,1.571 -5.102,4.281 l 1.79,0.494 c 0.2,-0.842 0.349,-1.243 0.673,-1.69 0.598,-0.845 1.619,-1.342 2.713,-1.342 1.841,0 3.332,1.443 3.332,3.26 0,1.017 -0.446,1.793 -1.367,2.362 -0.622,0.401 -0.622,0.401 -2.935,1.443 -2.389,1.073 -3.359,2.265 -3.359,4.084 0,2.437 1.99,4.277 4.652,4.277 1.865,0 3.284,-0.87 4.281,-2.585 z"
             style="fill:#1a171b;fill-opacity:1;fill-rule:nonzero;stroke:none"
             id="path280" /></g><g
           id="g282"
           transform="translate(307.2739,205.4131)"><path
             d="m 0,0 c -1.619,1.521 -3.162,2.19 -5.028,2.19 -3.657,0 -6.692,-3.137 -6.692,-6.918 0,-3.708 3.035,-6.767 6.718,-6.767 1.84,0 3.409,0.672 5.002,2.165 v -2.291 c -1.643,-1.12 -3.212,-1.617 -5.002,-1.617 -4.678,0 -8.584,3.883 -8.584,8.536 0,4.749 3.906,8.633 8.684,8.633 1.84,0 3.233,-0.47 4.902,-1.64 z"
             style="fill:#1a171b;fill-opacity:1;fill-rule:nonzero;stroke:none"
             id="path284" /></g><path
           d="m 325.133,192.475 h -1.867 v 16.597 h 1.867 z"
           style="fill:#1a171b;fill-opacity:1;fill-rule:nonzero;stroke:none"
           id="path286" /><g
           id="g288"
           transform="translate(343.8828,207.3535)"><path
             d="M 0,0 V -4.95 H 6.544 V -6.668 H 0 v -6.493 h 6.718 v -1.718 H -1.866 V 1.718 H 6.718 V 0 Z"
             style="fill:#1a171b;fill-opacity:1;fill-rule:nonzero;stroke:none"
             id="path290" /></g><g
           id="g292"
           transform="translate(366.5918,209.7686)"><path
             d="m 0,0 12.913,-13.561 v 12.864 h 1.868 V -18.045 L 1.866,-4.509 V -17.294 H 0 Z"
             style="fill:#1a171b;fill-opacity:1;fill-rule:nonzero;stroke:none"
             id="path294" /></g><g
           id="g296"
           transform="translate(410.9312,205.4131)"><path
             d="m 0,0 c -1.618,1.521 -3.159,2.19 -5.025,2.19 -3.66,0 -6.696,-3.137 -6.696,-6.918 0,-3.708 3.036,-6.767 6.718,-6.767 1.844,0 3.41,0.672 5.003,2.165 v -2.291 c -1.644,-1.12 -3.21,-1.617 -5.003,-1.617 -4.678,0 -8.584,3.883 -8.584,8.536 0,4.749 3.906,8.633 8.684,8.633 1.84,0 3.237,-0.47 4.903,-1.64 z"
             style="fill:#1a171b;fill-opacity:1;fill-rule:nonzero;stroke:none"
             id="path298" /></g><g
           id="g300"
           transform="translate(428.79,207.3535)"><path
             d="M 0,0 V -4.95 H 6.546 V -6.668 H 0 v -6.493 h 6.721 v -1.718 H -1.862 V 1.718 H 6.721 V 0 Z"
             style="fill:#1a171b;fill-opacity:1;fill-rule:nonzero;stroke:none"
             id="path302" /></g><g
           id="g304"
           transform="translate(472.1641,207.3535)"><path
             d="M 0,0 V -4.95 H 5.501 V -6.668 H 0 v -8.211 H -1.861 V 1.718 H 5.676 V 0 Z"
             style="fill:#1a171b;fill-opacity:1;fill-rule:nonzero;stroke:none"
             id="path306" /></g><g
           id="g308"
           transform="translate(494.6055,200.8604)"><path
             d="m 0,0 c 0,-2.043 0.72,-3.732 2.115,-5.053 1.271,-1.192 2.957,-1.889 4.603,-1.889 3.783,0 6.818,3.031 6.818,6.842 0,3.784 -3.011,6.843 -6.768,6.843 C 3.057,6.743 0,3.684 0,0 m 15.403,-0.1 c 0,-4.753 -3.907,-8.586 -8.714,-8.586 -2.359,0 -4.774,1.095 -6.418,2.911 -1.391,1.57 -2.139,3.538 -2.139,5.775 0,4.578 3.983,8.483 8.658,8.483 4.706,0 8.613,-3.883 8.613,-8.583"
             style="fill:#1a171b;fill-opacity:1;fill-rule:nonzero;stroke:none"
             id="path310" /></g><g
           id="g312"
           transform="translate(527.8691,198.8926)"><path
             d="m 0,0 c 0,-1.715 0.122,-2.463 0.548,-3.186 0.647,-1.044 2.09,-1.789 3.508,-1.789 1.392,0 2.838,0.745 3.482,1.789 C 7.961,-2.463 8.089,-1.715 8.089,0 V 10.179 H 9.954 V -0.497 c 0,-1.793 -0.301,-2.91 -1.099,-3.931 -1.088,-1.417 -2.907,-2.29 -4.799,-2.29 -1.89,0 -3.758,0.873 -4.828,2.29 -0.798,1.021 -1.095,2.118 -1.095,3.931 V 10.179 H 0 Z"
             style="fill:#1a171b;fill-opacity:1;fill-rule:nonzero;stroke:none"
             id="path314" /></g><g
           id="g316"
           transform="translate(554.7354,209.7686)"><path
             d="m 0,0 12.916,-13.561 v 12.864 h 1.865 V -18.045 L 1.864,-4.509 V -17.294 H 0 Z"
             style="fill:#1a171b;fill-opacity:1;fill-rule:nonzero;stroke:none"
             id="path318" /></g><g
           id="g320"
           transform="translate(589.8926,194.1924)"><path
             d="m 0,0 c 2.04,0 3.511,0.47 4.753,1.515 1.442,1.223 2.268,3.035 2.268,5.053 0,2.04 -0.826,3.88 -2.244,5.076 C 3.535,12.688 2.04,13.161 0,13.161 H -1.618 V 0 Z m -3.482,14.879 h 3.407 c 2.69,0 4.506,-0.572 6.098,-1.918 C 7.863,11.421 8.887,9.156 8.887,6.593 8.887,3.983 7.863,1.766 5.973,0.197 4.33,-1.17 2.588,-1.718 -0.101,-1.718 h -3.381 z"
             style="fill:#1a171b;fill-opacity:1;fill-rule:nonzero;stroke:none"
             id="path322" /></g><g
           id="g324"
           transform="translate(619.6465,205.5381)"><path
             d="m 0,0 -2.835,-6.646 h 5.601 z m -3.608,-8.36 -1.994,-4.703 H -7.613 L 0.027,4.328 7.49,-13.063 H 5.45 L 3.485,-8.36 Z"
             style="fill:#1a171b;fill-opacity:1;fill-rule:nonzero;stroke:none"
             id="path326" /></g><g
           id="g328"
           transform="translate(645.0469,192.4746)"><path
             d="m 0,0 h -1.867 v 14.879 h -4.006 v 1.718 H 4.03 V 14.879 H 0 Z"
             style="fill:#1a171b;fill-opacity:1;fill-rule:nonzero;stroke:none"
             id="path330" /></g><path
           d="m 666.036,192.475 h -1.864 v 16.597 h 1.864 z"
           style="fill:#1a171b;fill-opacity:1;fill-rule:nonzero;stroke:none"
           id="path332" /><g
           id="g334"
           transform="translate(683.8652,200.8604)"><path
             d="m 0,0 c 0,-2.043 0.723,-3.732 2.115,-5.053 1.271,-1.192 2.96,-1.889 4.607,-1.889 3.779,0 6.817,3.031 6.817,6.842 0,3.784 -3.013,6.843 -6.77,6.843 C 3.058,6.743 0,3.684 0,0 m 15.404,-0.1 c 0,-4.753 -3.908,-8.586 -8.714,-8.586 -2.359,0 -4.775,1.095 -6.418,2.911 -1.395,1.57 -2.136,3.538 -2.136,5.775 0,4.578 3.979,8.483 8.654,8.483 4.706,0 8.614,-3.883 8.614,-8.583"
             style="fill:#1a171b;fill-opacity:1;fill-rule:nonzero;stroke:none"
             id="path336" /></g><g
           id="g338"
           transform="translate(715.2686,209.7686)"><path
             d="m 0,0 12.916,-13.561 v 12.864 h 1.862 V -18.045 L 1.864,-4.509 V -17.294 H 0 Z"
             style="fill:#1a171b;fill-opacity:1;fill-rule:nonzero;stroke:none"
             id="path340" /></g><g
           id="g342"
           transform="translate(401.0356,302.647)"><path
             d="m 0,0 c 0,-16.555 -1.733,-24.834 -7.123,-34.078 -10.207,-17.714 -32.154,-29.65 -54.487,-29.65 -36.391,0 -66.425,29.841 -66.425,65.846 0,36.581 30.034,66.423 67.001,66.423 14.633,0 28.881,-4.813 40.241,-13.859 5.197,-4.046 8.856,-8.091 15.4,-16.174 l -6.736,-5.197 c -5.393,7.119 -8.28,10.392 -12.324,13.668 -9.819,8.667 -23.682,13.667 -36.964,13.667 -31.577,0 -58.146,-26.95 -58.146,-58.722 0,-31.578 26.377,-57.761 57.761,-57.761 18.675,0 38.311,10.401 46.977,24.644 3.848,6.161 5.389,12.519 5.775,23.489 H -54.104 V 0 Z"
             style="fill:#1a171b;fill-opacity:1;fill-rule:nonzero;stroke:none"
             id="path344" /></g><g
           id="g346"
           transform="translate(463.0488,351.7407)"><path
             d="m 0,0 -24.453,-60.837 h 48.516 z m -27.538,-68.541 -17.133,-42.163 h -9.241 L 0,21.565 53.521,-110.704 h -9.433 l -16.943,42.163 z"
             style="fill:#1a171b;fill-opacity:1;fill-rule:nonzero;stroke:none"
             id="path348" /></g><g
           id="g350"
           transform="translate(595.7129,378.5063)"><path
             d="m 0,0 -24.072,20.213 6.934,5.391 L 0,11.358 17.134,25.604 23.871,20.213 Z m 43.317,-35.43 c -5.966,6.549 -9.048,9.243 -15.019,12.519 -8.859,5.007 -19.062,7.698 -28.298,7.698 -31.19,0 -57.765,-27.144 -57.765,-58.722 0,-16.943 7.124,-31.963 20.026,-42.933 11.167,-9.434 24.838,-14.829 37.739,-14.829 10.203,0 22.521,3.661 32.15,9.822 4.042,2.31 6.352,4.431 11.167,9.434 v -11.164 c -14.246,-11.167 -27.338,-15.982 -42.742,-15.982 -36.196,0 -67.001,30.225 -67.001,66.037 0,36.005 30.42,66.231 66.619,66.231 16.168,0 29.645,-5.197 43.124,-16.556 z"
             style="fill:#1a171b;fill-opacity:1;fill-rule:nonzero;stroke:none"
             id="path352" /></g><g
           id="g354"
           transform="translate(687.3633,309.3867)"><path
             d="m 0,0 c 18.483,0 29.072,9.622 29.072,26.187 0,10.006 -4.427,18.482 -11.355,22.331 -4.816,2.697 -11.167,3.849 -19.446,3.849 H -12.318 L -12.318,0 Z M 42.937,-68.35 H 32.732 L -8.473,-7.704 h -3.845 V -68.35 h -8.283 V 60.064 h 18.098 c 13.095,0 20.411,-1.73 27.148,-6.543 8.279,-5.772 12.9,-15.594 12.9,-27.525 0,-13.292 -5.967,-23.878 -16.174,-29.463 -5.003,-2.697 -10.2,-3.658 -20.403,-4.237 z"
             style="fill:#1a171b;fill-opacity:1;fill-rule:nonzero;stroke:none"
             id="path356" /></g></g></g></g></svg>
